<?xml version="1.0" encoding="UTF-8" standalone="no"?>
<!-- Created with Inkscape (http://www.inkscape.org/) -->

<svg
   xmlns:dc="http://purl.org/dc/elements/1.1/"
   xmlns:cc="http://creativecommons.org/ns#"
   xmlns:rdf="http://www.w3.org/1999/02/22-rdf-syntax-ns#"
   xmlns:svg="http://www.w3.org/2000/svg"
   xmlns="http://www.w3.org/2000/svg"
   xmlns:sodipodi="http://sodipodi.sourceforge.net/DTD/sodipodi-0.dtd"
   xmlns:inkscape="http://www.inkscape.org/namespaces/inkscape"
   width="297mm"
   height="171mm"
   viewBox="0 0 297 171"
   version="1.1"
   id="svg8"
   sodipodi:docname="FunCobal_cross_Ches_collab.svg"
   inkscape:export-filename="D:\ResDev\_EEICT\LangInfo\FunCobal_project\org.dev-pack.fun\assets\images\FunCobal_cross_Ches_collab.png"
   inkscape:export-xdpi="25.4"
   inkscape:export-ydpi="25.4"
   inkscape:version="0.92.4 (5da689c313, 2019-01-14)">
  <defs
     id="defs2" />
  <sodipodi:namedview
     id="base"
     pagecolor="#ffffff"
     bordercolor="#666666"
     borderopacity="1.0"
     inkscape:pageopacity="0.0"
     inkscape:pageshadow="2"
     inkscape:zoom="0.63792966"
     inkscape:cx="580.53859"
     inkscape:cy="572.65968"
     inkscape:document-units="mm"
     inkscape:current-layer="g1440"
     showgrid="false"
     width="296mm"
     inkscape:window-width="1503"
     inkscape:window-height="1251"
     inkscape:window-x="89"
     inkscape:window-y="71"
     inkscape:window-maximized="1" />
  <metadata
     id="metadata5">
    <rdf:RDF>
      <cc:Work
         rdf:about="">
        <dc:format>image/svg+xml</dc:format>
        <dc:type
           rdf:resource="http://purl.org/dc/dcmitype/StillImage" />
        <dc:title></dc:title>
      </cc:Work>
    </rdf:RDF>
  </metadata>
  <g
     inkscape:label="レイヤー 1"
     inkscape:groupmode="layer"
     id="layer1"
     transform="translate(0,-126)">
    <g
       transform="matrix(0.59987075,0,0,0.59987075,4.4612882,65.921513)"
       id="layer1-75"
       inkscape:label="レイヤー 1">
      <path
         id="rect815-2"
         transform="matrix(0.26458333,0,0,0.26458333,0,97)"
         d="M 601.98242,100.91797 536.73633,366.23242 H 368.84766 v 36.875 h 158.82226 l -46.42578,188.78711 h -66.35742 v 38.65625 h 100.22266 l 6.44531,1.58399 127.77343,-519.57813 z m -358.01758,10.02734 -60.53711,213.41797 h -0.28906 v 1.01563 l -85.187498,300.3164 46.908208,13.29883 78.7871,-277.75391 H 386.29883 V 324.36328 H 234.10547 l 49.58594,-174.81055 h 80.70312 v -38.60742 z"
         style="opacity:1;fill:#f65140;fill-opacity:1;stroke:none;stroke-width:0.77774286;stroke-linecap:round;stroke-linejoin:round;stroke-miterlimit:4;stroke-dasharray:0.77774287, 1.55548577;stroke-dashoffset:0;stroke-opacity:1;paint-order:normal"
         inkscape:connector-curvature="0" />
    </g>
    <path
       style="opacity:1;fill:#a8b0b9;fill-opacity:1;stroke:none;stroke-width:1.24583542;stroke-linecap:round;stroke-linejoin:round;stroke-miterlimit:4;stroke-dasharray:none;stroke-dashoffset:53.70708847;stroke-opacity:1;paint-order:normal"
       d="m 118.78601,162.39604 21.93162,21.93162 -21.96342,21.96342 3.53025,3.53025 21.96342,-21.96342 22.09346,22.09346 3.53024,-3.53026 -22.09344,-22.09345 22.06222,-22.06223 -3.53025,-3.53025 -22.06223,22.06223 -21.93162,-21.93162 z"
       id="rect839"
       inkscape:connector-curvature="0" />
    <g
       id="g1541"
       transform="matrix(3.2430989,0,0,3.2430989,-68.655969,-90.165862)"
       style="fill:#0f0d0d;fill-opacity:1">
      <g
         aria-label="FunCobal"
         transform="matrix(0.26458333,0,0,0.26458333,-1.4699824,93.147199)"
         style="font-style:normal;font-variant:normal;font-weight:normal;font-stretch:normal;font-size:37.33333206px;line-height:1.25;font-family:sans-serif;-inkscape-font-specification:'sans-serif, Normal';font-variant-ligatures:normal;font-variant-caps:normal;font-variant-numeric:normal;font-feature-settings:normal;text-align:start;letter-spacing:0px;word-spacing:0px;writing-mode:lr-tb;text-anchor:start;fill:#f65140;fill-opacity:1;stroke:none"
         id="flowRoot1523">
        <path
           d="m 101.91016,24.951823 h 15.64062 v 3.098958 h -11.95833 v 8.020833 h 10.79166 v 3.098958 h -10.79166 v 12.997395 h -3.68229 z"
           id="path964"
           inkscape:connector-curvature="0"
           style="fill:#f65140;fill-opacity:1" />
        <path
           d="M 120.88672,44.110676 V 31.751302 h 3.35417 v 12.23177 q 0,2.898437 1.1302,4.356771 1.13021,1.440104 3.39063,1.440104 2.71614,0 4.28385,-1.731771 1.58594,-1.731771 1.58594,-4.721354 v -11.57552 h 3.35417 v 20.416665 h -3.35417 v -3.135416 q -1.22135,1.859375 -2.84375,2.770833 -1.60417,0.893229 -3.73698,0.893229 -3.51823,0 -5.34114,-2.1875 -1.82292,-2.1875 -1.82292,-6.398437 z m 8.4401,-12.851562 z"
           id="path966"
           inkscape:connector-curvature="0"
           style="fill:#f65140;fill-opacity:1" />
        <path
           d="m 161.90234,39.845051 v 12.322916 h -3.35417 V 39.954426 q 0,-2.898437 -1.1302,-4.338541 -1.13021,-1.440104 -3.39063,-1.440104 -2.71614,0 -4.28385,1.73177 -1.56771,1.731771 -1.56771,4.721354 v 11.539062 h -3.3724 V 31.751302 h 3.3724 v 3.171874 q 1.20312,-1.841145 2.82552,-2.752604 1.64062,-0.911458 3.77344,-0.911458 3.51823,0 5.32291,2.1875 1.80469,2.169271 1.80469,6.398437 z"
           id="path968"
           inkscape:connector-curvature="0"
           style="fill:#f65140;fill-opacity:1" />
        <path
           d="m 189.15494,27.048177 v 3.882812 q -1.85937,-1.731771 -3.97396,-2.588542 -2.09635,-0.85677 -4.46614,-0.85677 -4.66667,0 -7.14583,2.861979 -2.47917,2.84375 -2.47917,8.239583 0,5.377604 2.47917,8.239583 2.47916,2.84375 7.14583,2.84375 2.36979,0 4.46614,-0.856771 2.11459,-0.856771 3.97396,-2.588542 v 3.846354 q -1.93229,1.3125 -4.10156,1.96875 -2.15104,0.65625 -4.55729,0.65625 -6.17969,0 -9.73438,-3.773437 -3.55468,-3.791667 -3.55468,-10.335937 0,-6.5625 3.55468,-10.335937 3.55469,-3.791667 9.73438,-3.791667 2.44271,0 4.59375,0.65625 2.16927,0.638021 4.0651,1.932292 z"
           id="path970"
           inkscape:connector-curvature="0"
           style="fill:#f65140;fill-opacity:1" />
        <path
           d="m 202.64453,34.102864 q -2.69792,0 -4.26562,2.114583 -1.56771,2.096354 -1.56771,5.760417 0,3.664062 1.54948,5.778645 1.56771,2.096354 4.28385,2.096354 2.67969,0 4.2474,-2.114583 1.5677,-2.114583 1.5677,-5.760416 0,-3.627604 -1.5677,-5.742188 -1.56771,-2.132812 -4.2474,-2.132812 z m 0,-2.84375 q 4.375,0 6.8724,2.84375 2.49739,2.84375 2.49739,7.875 0,5.01302 -2.49739,7.874999 -2.4974,2.84375 -6.8724,2.84375 -4.39323,0 -6.89062,-2.84375 -2.47917,-2.861979 -2.47917,-7.874999 0,-5.03125 2.47917,-7.875 2.49739,-2.84375 6.89062,-2.84375 z"
           id="path972"
           inkscape:connector-curvature="0"
           style="fill:#f65140;fill-opacity:1" />
        <path
           d="m 232.21224,41.977864 q 0,-3.700521 -1.53125,-5.796875 -1.51302,-2.114583 -4.17448,-2.114583 -2.66146,0 -4.19271,2.114583 -1.51302,2.096354 -1.51302,5.796875 0,3.70052 1.51302,5.815104 1.53125,2.096354 4.19271,2.096354 2.66146,0 4.17448,-2.096354 1.53125,-2.114584 1.53125,-5.815104 z M 220.80078,34.85026 q 1.05729,-1.822917 2.66146,-2.697917 1.62239,-0.893229 3.86458,-0.893229 3.71875,0 6.03385,2.953125 2.33334,2.953125 2.33334,7.765625 0,4.8125 -2.33334,7.765624 -2.3151,2.953125 -6.03385,2.953125 -2.24219,0 -3.86458,-0.875 -1.60417,-0.893229 -2.66146,-2.716145 v 3.062499 h -3.3724 V 23.803385 h 3.3724 z"
           id="path974"
           inkscape:connector-curvature="0"
           style="fill:#f65140;fill-opacity:1" />
        <path
           d="m 250.53255,41.904947 q -4.06511,0 -5.63282,0.929687 -1.5677,0.929688 -1.5677,3.171875 0,1.786459 1.16666,2.84375 1.1849,1.039063 3.20834,1.039063 2.78906,0 4.46614,-1.96875 1.69531,-1.986979 1.69531,-5.268229 v -0.747396 z m 6.6901,-1.385417 v 11.648437 h -3.35417 v -3.098958 q -1.14843,1.859375 -2.86198,2.752604 -1.71354,0.875 -4.1927,0.875 -3.13542,0 -4.99479,-1.75 -1.84115,-1.768229 -1.84115,-4.721354 0,-3.445312 2.29687,-5.195312 2.31511,-1.75 6.89063,-1.75 h 4.70312 v -0.328125 q 0,-2.315104 -1.53125,-3.572916 -1.51302,-1.276042 -4.26562,-1.276042 -1.75,0 -3.40885,0.419271 -1.65886,0.419271 -3.19011,1.257812 v -3.098958 q 1.84115,-0.710937 3.57292,-1.057292 1.73177,-0.364583 3.37239,-0.364583 4.42969,0 6.61719,2.296875 2.1875,2.296875 2.1875,6.963541 z"
           id="path976"
           inkscape:connector-curvature="0"
           style="fill:#f65140;fill-opacity:1" />
        <path
           d="m 264.14973,23.803385 h 3.35417 v 28.364582 h -3.35417 z"
           id="path978"
           inkscape:connector-curvature="0"
           style="fill:#f65140;fill-opacity:1" />
      </g>
      <g
         id="g1372"
         style="fill:#665555;fill-opacity:1">
        <path
           d="m 73.64485,102.26037 v 0.42168 h -0.485069 q -0.272852,0 -0.380339,0.11024 -0.104731,0.11024 -0.104731,0.39687 v 0.27285 h 0.835091 v 0.39412 h -0.835091 v 2.69269 h -0.509874 v -2.69269 h -0.485069 v -0.39412 h 0.485069 v -0.21497 q 0,-0.51539 0.239779,-0.74965 0.239778,-0.23702 0.760677,-0.23702 z"
           style="font-style:normal;font-variant:normal;font-weight:normal;font-stretch:normal;font-size:5.64444447px;line-height:1.25;font-family:sans-serif;-inkscape-font-specification:'sans-serif, Normal';font-variant-ligatures:normal;font-variant-caps:normal;font-variant-numeric:normal;font-feature-settings:normal;text-align:start;letter-spacing:0px;word-spacing:0px;writing-mode:lr-tb;text-anchor:start;fill:#665555;fill-opacity:1;stroke:none;stroke-width:0.26458332"
           id="path981"
           inkscape:connector-curvature="0" />
        <path
           d="m 75.469373,104.99715 q -0.614605,0 -0.851628,0.14056 -0.237023,0.14056 -0.237023,0.47956 0,0.27009 0.176389,0.42994 0.179145,0.1571 0.48507,0.1571 0.421679,0 0.675238,-0.29766 0.256316,-0.30041 0.256316,-0.7965 v -0.113 z m 1.01148,-0.20946 v 1.76113 h -0.507118 v -0.46853 q -0.173633,0.28112 -0.432704,0.41617 -0.259072,0.13229 -0.633898,0.13229 -0.474045,0 -0.755165,-0.26459 -0.278364,-0.26734 -0.278364,-0.71382 0,-0.5209 0.347266,-0.78548 0.350022,-0.26459 1.041797,-0.26459 h 0.711068 v -0.0496 q 0,-0.35003 -0.231511,-0.5402 -0.228754,-0.19292 -0.644922,-0.19292 -0.264583,0 -0.515386,0.0634 -0.250803,0.0634 -0.482313,0.19017 v -0.46854 q 0.278363,-0.10748 0.540191,-0.15985 0.261827,-0.0551 0.509874,-0.0551 0.669726,0 1.000455,0.34727 0.33073,0.34726 0.33073,1.05282 z"
           style="font-style:normal;font-variant:normal;font-weight:normal;font-stretch:normal;font-size:5.64444447px;line-height:1.25;font-family:sans-serif;-inkscape-font-specification:'sans-serif, Normal';font-variant-ligatures:normal;font-variant-caps:normal;font-variant-numeric:normal;font-feature-settings:normal;text-align:start;letter-spacing:0px;word-spacing:0px;writing-mode:lr-tb;text-anchor:start;fill:#665555;fill-opacity:1;stroke:none;stroke-width:0.26458332"
           id="path983"
           inkscape:connector-curvature="0" />
        <path
           d="m 79.93146,104.05457 q 0.190169,-0.34175 0.454753,-0.50436 0.264583,-0.16261 0.622873,-0.16261 0.482313,0 0.744141,0.339 0.261827,0.33624 0.261827,0.95911 v 1.86311 H 81.50518 v -1.84657 q 0,-0.44373 -0.157097,-0.6587 -0.157096,-0.21498 -0.479557,-0.21498 -0.394119,0 -0.622873,0.26183 -0.228755,0.26183 -0.228755,0.71382 v 1.7446 h -0.509874 v -1.84657 q 0,-0.44649 -0.157096,-0.6587 -0.157096,-0.21498 -0.485069,-0.21498 -0.388607,0 -0.617362,0.26459 -0.228754,0.26182 -0.228754,0.71106 v 1.7446 h -0.509874 v -3.08681 h 0.509874 v 0.47956 q 0.173633,-0.28387 0.416168,-0.41892 0.242534,-0.13505 0.57602,-0.13505 0.336241,0 0.570507,0.17088 0.237023,0.17087 0.350022,0.49609 z"
           style="font-style:normal;font-variant:normal;font-weight:normal;font-stretch:normal;font-size:5.64444447px;line-height:1.25;font-family:sans-serif;-inkscape-font-specification:'sans-serif, Normal';font-variant-ligatures:normal;font-variant-caps:normal;font-variant-numeric:normal;font-feature-settings:normal;text-align:start;letter-spacing:0px;word-spacing:0px;writing-mode:lr-tb;text-anchor:start;fill:#665555;fill-opacity:1;stroke:none;stroke-width:0.26458332"
           id="path985"
           inkscape:connector-curvature="0" />
        <path
           d="m 83.029291,103.46201 h 0.507118 v 3.08681 h -0.507118 z m 0,-1.20164 h 0.507118 v 0.64216 h -0.507118 z"
           style="font-style:normal;font-variant:normal;font-weight:normal;font-stretch:normal;font-size:5.64444447px;line-height:1.25;font-family:sans-serif;-inkscape-font-specification:'sans-serif, Normal';font-variant-ligatures:normal;font-variant-caps:normal;font-variant-numeric:normal;font-feature-settings:normal;text-align:start;letter-spacing:0px;word-spacing:0px;writing-mode:lr-tb;text-anchor:start;fill:#665555;fill-opacity:1;stroke:none;stroke-width:0.26458332"
           id="path987"
           inkscape:connector-curvature="0" />
        <path
           d="m 84.594741,102.26037 h 0.507118 v 4.28845 h -0.507118 z"
           style="font-style:normal;font-variant:normal;font-weight:normal;font-stretch:normal;font-size:5.64444447px;line-height:1.25;font-family:sans-serif;-inkscape-font-specification:'sans-serif, Normal';font-variant-ligatures:normal;font-variant-caps:normal;font-variant-numeric:normal;font-feature-settings:normal;text-align:start;letter-spacing:0px;word-spacing:0px;writing-mode:lr-tb;text-anchor:start;fill:#665555;fill-opacity:1;stroke:none;stroke-width:0.26458332"
           id="path989"
           inkscape:connector-curvature="0" />
        <path
           d="m 87.444524,106.83545 q -0.214973,0.55122 -0.418923,0.71934 -0.20395,0.16812 -0.545703,0.16812 h -0.405143 v -0.42444 h 0.297656 q 0.209462,0 0.325217,-0.0992 0.115755,-0.0992 0.256315,-0.46853 l 0.09095,-0.23151 -1.248502,-3.0372 h 0.537435 l 0.964626,2.41433 0.964627,-2.41433 h 0.537435 z"
           style="font-style:normal;font-variant:normal;font-weight:normal;font-stretch:normal;font-size:5.64444447px;line-height:1.25;font-family:sans-serif;-inkscape-font-specification:'sans-serif, Normal';font-variant-ligatures:normal;font-variant-caps:normal;font-variant-numeric:normal;font-feature-settings:normal;text-align:start;letter-spacing:0px;word-spacing:0px;writing-mode:lr-tb;text-anchor:start;fill:#665555;fill-opacity:1;stroke:none;stroke-width:0.26458332"
           id="path991"
           inkscape:connector-curvature="0" />
      </g>
      <g
         id="g1381"
         style="fill:#665555;fill-opacity:1">
        <path
           d="m 91.788101,106.0858 v 1.63711 h -0.509874 v -4.2609 h 0.509874 v 0.46854 q 0.159852,-0.27561 0.402387,-0.4079 0.245291,-0.13505 0.584288,-0.13505 0.56224,0 0.912261,0.44649 0.352778,0.44648 0.352778,1.17408 0,0.72761 -0.352778,1.17409 -0.350021,0.44649 -0.912261,0.44649 -0.338997,0 -0.584288,-0.13229 -0.242535,-0.13505 -0.402387,-0.41066 z m 1.725304,-1.07763 q 0,-0.55948 -0.231511,-0.87643 -0.228754,-0.3197 -0.631141,-0.3197 -0.402388,0 -0.633898,0.3197 -0.228754,0.31695 -0.228754,0.87643 0,0.55949 0.228754,0.87919 0.23151,0.31695 0.633898,0.31695 0.402387,0 0.631141,-0.31695 0.231511,-0.3197 0.231511,-0.87919 z"
           style="font-style:normal;font-variant:normal;font-weight:normal;font-stretch:normal;font-size:5.64444447px;line-height:1.25;font-family:sans-serif;-inkscape-font-specification:'sans-serif, Normal';font-variant-ligatures:normal;font-variant-caps:normal;font-variant-numeric:normal;font-feature-settings:normal;text-align:start;letter-spacing:0px;word-spacing:0px;writing-mode:lr-tb;text-anchor:start;fill:#665555;fill-opacity:1;stroke:none;stroke-width:0.26458332"
           id="path993"
           inkscape:connector-curvature="0" />
        <path
           d="m 96.669112,103.93606 q -0.08544,-0.0496 -0.187413,-0.0717 -0.09922,-0.0248 -0.220486,-0.0248 -0.429948,0 -0.661459,0.28112 Q 95.371,104.39904 95.371,104.9227 v 1.62608 h -0.509874 v -3.08681 H 95.371 v 0.47956 q 0.159852,-0.28112 0.416167,-0.41617 0.256315,-0.1378 0.622874,-0.1378 0.05236,0 0.115755,0.008 0.06339,0.006 0.14056,0.0193 z"
           style="font-style:normal;font-variant:normal;font-weight:normal;font-stretch:normal;font-size:5.64444447px;line-height:1.25;font-family:sans-serif;-inkscape-font-specification:'sans-serif, Normal';font-variant-ligatures:normal;font-variant-caps:normal;font-variant-numeric:normal;font-feature-settings:normal;text-align:start;letter-spacing:0px;word-spacing:0px;writing-mode:lr-tb;text-anchor:start;fill:#665555;fill-opacity:1;stroke:none;stroke-width:0.26458332"
           id="path995"
           inkscape:connector-curvature="0" />
        <path
           d="m 98.281418,103.81755 q -0.407899,0 -0.644922,0.3197 -0.237022,0.31695 -0.237022,0.87092 0,0.55398 0.234266,0.87368 0.237023,0.31695 0.647678,0.31695 0.405143,0 0.642166,-0.31971 0.237022,-0.3197 0.237022,-0.87092 0,-0.54846 -0.237022,-0.86816 -0.237023,-0.32246 -0.642166,-0.32246 z m 0,-0.42995 q 0.661458,0 1.039041,0.42995 0.377582,0.42995 0.377582,1.19062 0,0.75792 -0.377582,1.19063 -0.377583,0.42995 -1.039041,0.42995 -0.664214,0 -1.041797,-0.42995 -0.374826,-0.43271 -0.374826,-1.19063 0,-0.76067 0.374826,-1.19062 0.377583,-0.42995 1.041797,-0.42995 z"
           style="font-style:normal;font-variant:normal;font-weight:normal;font-stretch:normal;font-size:5.64444447px;line-height:1.25;font-family:sans-serif;-inkscape-font-specification:'sans-serif, Normal';font-variant-ligatures:normal;font-variant-caps:normal;font-variant-numeric:normal;font-feature-settings:normal;text-align:start;letter-spacing:0px;word-spacing:0px;writing-mode:lr-tb;text-anchor:start;fill:#665555;fill-opacity:1;stroke:none;stroke-width:0.26458332"
           id="path997"
           inkscape:connector-curvature="0" />
        <path
           d="m 100.53589,103.46201 h 0.50712 v 3.14193 q 0,0.5898 -0.226,0.85439 -0.22324,0.26458 -0.72209,0.26458 h -0.192929 v -0.42995 h 0.135049 q 0.28939,0 0.39412,-0.13505 0.10473,-0.13229 0.10473,-0.55397 z m 0,-1.20164 h 0.50712 v 0.64216 h -0.50712 z"
           style="font-style:normal;font-variant:normal;font-weight:normal;font-stretch:normal;font-size:5.64444447px;line-height:1.25;font-family:sans-serif;-inkscape-font-specification:'sans-serif, Normal';font-variant-ligatures:normal;font-variant-caps:normal;font-variant-numeric:normal;font-feature-settings:normal;text-align:start;letter-spacing:0px;word-spacing:0px;writing-mode:lr-tb;text-anchor:start;fill:#665555;fill-opacity:1;stroke:none;stroke-width:0.26458332"
           id="path999"
           inkscape:connector-curvature="0" />
        <path
           d="m 104.74166,104.87864 v 0.24805 h -2.33164 q 0.0331,0.52365 0.31419,0.79926 0.28388,0.27285 0.78824,0.27285 0.29214,0 0.565,-0.0717 0.2756,-0.0717 0.5457,-0.21497 v 0.47955 q -0.27285,0.11576 -0.55948,0.17639 -0.28664,0.0606 -0.58154,0.0606 -0.73863,0 -1.17133,-0.42995 -0.42995,-0.42995 -0.42995,-1.16307 0,-0.75792 0.4079,-1.20164 0.41066,-0.44649 1.10519,-0.44649 0.62287,0 0.98392,0.40239 0.3638,0.39963 0.3638,1.08865 z m -0.50712,-0.14883 q -0.006,-0.41617 -0.23426,-0.66421 -0.226,-0.24805 -0.60083,-0.24805 -0.42443,0 -0.68075,0.23978 -0.25356,0.23978 -0.29214,0.67524 z"
           style="font-style:normal;font-variant:normal;font-weight:normal;font-stretch:normal;font-size:5.64444447px;line-height:1.25;font-family:sans-serif;-inkscape-font-specification:'sans-serif, Normal';font-variant-ligatures:normal;font-variant-caps:normal;font-variant-numeric:normal;font-feature-settings:normal;text-align:start;letter-spacing:0px;word-spacing:0px;writing-mode:lr-tb;text-anchor:start;fill:#665555;fill-opacity:1;stroke:none;stroke-width:0.26458332"
           id="path1001"
           inkscape:connector-curvature="0" />
        <path
           d="m 107.79539,103.58053 v 0.47404 q -0.21497,-0.11851 -0.4327,-0.17639 -0.21498,-0.0606 -0.43546,-0.0606 -0.49334,0 -0.76619,0.31419 -0.27285,0.31144 -0.27285,0.87643 0,0.565 0.27285,0.87919 0.27285,0.31144 0.76619,0.31144 0.22048,0 0.43546,-0.0579 0.21773,-0.0606 0.4327,-0.17914 v 0.46853 q -0.21222,0.0992 -0.44097,0.14883 -0.226,0.0496 -0.48231,0.0496 -0.69729,0 -1.10795,-0.43822 -0.41065,-0.43822 -0.41065,-1.18236 0,-0.75516 0.41341,-1.18787 0.41617,-0.4327 1.13826,-0.4327 0.23427,0 0.45751,0.0496 0.22324,0.0469 0.4327,0.14332 z"
           style="font-style:normal;font-variant:normal;font-weight:normal;font-stretch:normal;font-size:5.64444447px;line-height:1.25;font-family:sans-serif;-inkscape-font-specification:'sans-serif, Normal';font-variant-ligatures:normal;font-variant-caps:normal;font-variant-numeric:normal;font-feature-settings:normal;text-align:start;letter-spacing:0px;word-spacing:0px;writing-mode:lr-tb;text-anchor:start;fill:#665555;fill-opacity:1;stroke:none;stroke-width:0.26458332"
           id="path1003"
           inkscape:connector-curvature="0" />
        <path
           d="m 109.18446,102.58558 v 0.87643 h 1.04455 v 0.39412 h -1.04455 v 1.6757 q 0,0.37758 0.10197,0.48507 0.10473,0.10748 0.42168,0.10748 h 0.5209 v 0.42444 h -0.5209 q -0.58704,0 -0.81028,-0.21773 -0.22325,-0.22049 -0.22325,-0.79926 v -1.6757 h -0.37207 v -0.39412 h 0.37207 v -0.87643 z"
           style="font-style:normal;font-variant:normal;font-weight:normal;font-stretch:normal;font-size:5.64444447px;line-height:1.25;font-family:sans-serif;-inkscape-font-specification:'sans-serif, Normal';font-variant-ligatures:normal;font-variant-caps:normal;font-variant-numeric:normal;font-feature-settings:normal;text-align:start;letter-spacing:0px;word-spacing:0px;writing-mode:lr-tb;text-anchor:start;fill:#665555;fill-opacity:1;stroke:none;stroke-width:0.26458332"
           id="path1005"
           inkscape:connector-curvature="0" />
      </g>
    </g>
    <path
       style="font-style:normal;font-variant:normal;font-weight:normal;font-stretch:normal;font-size:37.33333206px;line-height:1.25;font-family:sans-serif;-inkscape-font-specification:'sans-serif, Normal';font-variant-ligatures:normal;font-variant-caps:normal;font-variant-numeric:normal;font-feature-settings:normal;text-align:start;letter-spacing:0px;word-spacing:0px;writing-mode:lr-tb;text-anchor:start;fill:#0f0d0d;fill-opacity:1;stroke:none;stroke-width:0.8580699"
       d="m 26.336411,266.39495 v 8.71254 h 8.712533 v 2.65913 h -8.712533 v 8.71253 h -2.627839 v -8.71253 H 14.99603 v -2.65913 h 8.712542 v -8.71254 z"
       id="path936"
       inkscape:connector-curvature="0" />
    <rect
       style="opacity:1;fill:#ffffff;fill-opacity:0;stroke:none;stroke-width:1.06500006;stroke-linecap:round;stroke-linejoin:round;stroke-miterlimit:4;stroke-dasharray:none;stroke-dashoffset:53.70708847;stroke-opacity:1;paint-order:normal"
       id="rect1311"
       width="12.851191"
       height="50.648811"
       x="-27.214285"
       y="186.63095" />
    <g
       id="g1440">
      <g
         id="g1419"
         style="fill:#ffdc0f;fill-opacity:0.94117647">
        <path
           style="font-style:normal;font-variant:normal;font-weight:normal;font-stretch:normal;font-size:37.33333206px;line-height:1.25;font-family:sans-serif;-inkscape-font-specification:'sans-serif, Normal';font-variant-ligatures:normal;font-variant-caps:normal;font-variant-numeric:normal;font-feature-settings:normal;text-align:start;letter-spacing:0px;word-spacing:0px;writing-mode:lr-tb;text-anchor:start;fill:#ffdc0f;fill-opacity:0.94117647;stroke:none;stroke-width:0.8580699"
           d="m 65.040087,266.51213 v 3.33172 q -1.595478,-1.48598 -3.409936,-2.22115 -1.798815,-0.73517 -3.832269,-0.73517 -4.00432,0 -6.131621,2.45578 -2.127301,2.44014 -2.127301,7.07014 0,4.61436 2.127301,7.07014 2.127301,2.44013 6.131621,2.44013 2.033454,0 3.832269,-0.73517 1.814458,-0.73517 3.409936,-2.22115 v 3.30044 q -1.65804,1.12622 -3.519425,1.68933 -1.845752,0.56311 -3.910482,0.56311 -5.302598,0 -8.35277,-3.23787 -3.050173,-3.25352 -3.050173,-8.86896 0,-5.63109 3.050173,-8.86896 3.050172,-3.25351 8.35277,-3.25351 2.096016,0 3.941758,0.56311 1.861386,0.54746 3.488149,1.65804 z"
           id="path938"
           inkscape:connector-curvature="0" />
        <path
           style="font-style:normal;font-variant:normal;font-weight:normal;font-stretch:normal;font-size:37.33333206px;line-height:1.25;font-family:sans-serif;-inkscape-font-specification:'sans-serif, Normal';font-variant-ligatures:normal;font-variant-caps:normal;font-variant-numeric:normal;font-feature-settings:normal;text-align:start;letter-spacing:0px;word-spacing:0px;writing-mode:lr-tb;text-anchor:start;fill:#ffdc0f;fill-opacity:0.94117647;stroke:none;stroke-width:0.8580699"
           d="m 84.389109,277.49274 v 10.57392 h -2.878104 v -10.48007 q 0,-2.48706 -0.969799,-3.72277 -0.9698,-1.23571 -2.909398,-1.23571 -2.330638,0 -3.675843,1.48598 -1.345205,1.48598 -1.345205,4.05125 v 9.90132 h -2.893746 v -24.33879 h 2.893746 v 9.54156 q 1.03237,-1.57983 2.424494,-2.36193 1.407775,-0.78209 3.237875,-0.78209 3.018888,0 4.567438,1.87702 1.548542,1.86139 1.548542,5.49031 z"
           id="path940"
           inkscape:connector-curvature="0" />
        <path
           style="font-style:normal;font-variant:normal;font-weight:normal;font-stretch:normal;font-size:37.33333206px;line-height:1.25;font-family:sans-serif;-inkscape-font-specification:'sans-serif, Normal';font-variant-ligatures:normal;font-variant-caps:normal;font-variant-numeric:normal;font-feature-settings:normal;text-align:start;letter-spacing:0px;word-spacing:0px;writing-mode:lr-tb;text-anchor:start;fill:#ffdc0f;fill-opacity:0.94117647;stroke:none;stroke-width:0.8580699"
           d="m 105.14591,278.58767 v 1.40777 H 91.912871 q 0.187703,2.97196 1.783173,4.53615 1.61112,1.54855 4.47359,1.54855 1.65804,0 3.206586,-0.40669 1.56419,-0.40669 3.0971,-1.22007 v 2.72169 q -1.54855,0.65696 -3.17531,1.00109 -1.626754,0.34412 -3.300445,0.34412 -4.192023,0 -6.647802,-2.44014 -2.440136,-2.44013 -2.440136,-6.60088 0,-4.30152 2.315004,-6.81987 2.330638,-2.53398 6.272396,-2.53398 3.535073,0 5.584153,2.28371 2.06473,2.26808 2.06473,6.17855 z m -2.8781,-0.84466 q -0.0313,-2.36193 -1.32956,-3.7697 -1.282636,-1.40777 -3.409937,-1.40777 -2.408851,0 -3.863546,1.36085 -1.43906,1.36084 -1.658048,3.83226 z"
           id="path942"
           inkscape:connector-curvature="0" />
        <path
           style="font-style:normal;font-variant:normal;font-weight:normal;font-stretch:normal;font-size:37.33333206px;line-height:1.25;font-family:sans-serif;-inkscape-font-specification:'sans-serif, Normal';font-variant-ligatures:normal;font-variant-caps:normal;font-variant-numeric:normal;font-feature-settings:normal;text-align:start;letter-spacing:0px;word-spacing:0px;writing-mode:lr-tb;text-anchor:start;fill:#ffdc0f;fill-opacity:0.94117647;stroke:none;stroke-width:0.8580699"
           d="m 121.03809,271.06392 v 2.72169 q -1.22007,-0.62568 -2.53399,-0.93851 -1.31392,-0.31284 -2.72169,-0.31284 -2.14294,0 -3.22223,0.65696 -1.06365,0.65696 -1.06365,1.97088 0,1.00108 0.76646,1.57983 0.76644,0.56311 3.08145,1.07929 l 0.98544,0.21899 q 3.0658,0.65696 4.34845,1.86138 1.29827,1.18879 1.29827,3.33173 0,2.44013 -1.93959,3.86355 -1.92396,1.42341 -5.30261,1.42341 -1.40777,0 -2.94068,-0.28156 -1.51726,-0.26591 -3.20659,-0.81337 v -2.97197 q 1.59548,0.82903 3.14402,1.25136 1.54855,0.40669 3.06582,0.40669 2.03345,0 3.12838,-0.68825 1.09493,-0.70388 1.09493,-1.97088 0,-1.17314 -0.79773,-1.79882 -0.7821,-0.62567 -3.45687,-1.20442 l -1.00107,-0.23463 q -2.67477,-0.56311 -3.86356,-1.72061 -1.18878,-1.17314 -1.18878,-3.20659 0,-2.47142 1.75189,-3.81662 1.7519,-1.3452 4.97413,-1.3452 1.59547,0 3.00325,0.23462 1.40776,0.23463 2.59655,0.70389 z"
           id="path944"
           inkscape:connector-curvature="0" />
      </g>
      <g
         id="g1413"
         style="fill:#665555;fill-opacity:1">
        <g
           id="text1533-7"
           style="font-style:normal;font-variant:normal;font-weight:normal;font-stretch:normal;font-size:5.64444447px;line-height:1.25;font-family:sans-serif;-inkscape-font-specification:'sans-serif, Normal';font-variant-ligatures:normal;font-variant-caps:normal;font-variant-numeric:normal;font-feature-settings:normal;text-align:start;letter-spacing:0px;word-spacing:0px;writing-mode:lr-tb;text-anchor:start;fill:#665555;fill-opacity:1;stroke:none;stroke-width:0.26458332"
           aria-label="project"
           transform="matrix(3.2430989,0,0,3.2430989,-45.533784,-58.132292)">
          <path
             inkscape:connector-curvature="0"
             id="path949"
             style="font-style:normal;font-variant:normal;font-weight:normal;font-stretch:normal;font-size:5.64444447px;font-family:sans-serif;-inkscape-font-specification:'sans-serif, Normal';font-variant-ligatures:normal;font-variant-caps:normal;font-variant-numeric:normal;font-feature-settings:normal;text-align:start;writing-mode:lr-tb;text-anchor:start;fill:#665555;fill-opacity:1;stroke-width:0.26458332"
             d="m 68.608678,106.08579 v 1.63711 h -0.509874 v -4.26089 h 0.509874 v 0.46853 q 0.159853,-0.27561 0.402388,-0.4079 0.24529,-0.13505 0.584288,-0.13505 0.562239,0 0.912261,0.44649 0.352778,0.44648 0.352778,1.17409 0,0.7276 -0.352778,1.17408 -0.350022,0.44649 -0.912261,0.44649 -0.338998,0 -0.584288,-0.13229 -0.242535,-0.13505 -0.402388,-0.41066 z m 1.725304,-1.07762 q 0,-0.55949 -0.23151,-0.87644 -0.228755,-0.3197 -0.631142,-0.3197 -0.402387,0 -0.633897,0.3197 -0.228755,0.31695 -0.228755,0.87644 0,0.55948 0.228755,0.87918 0.23151,0.31695 0.633897,0.31695 0.402387,0 0.631142,-0.31695 0.23151,-0.3197 0.23151,-0.87918 z" />
          <path
             inkscape:connector-curvature="0"
             id="path951"
             style="font-style:normal;font-variant:normal;font-weight:normal;font-stretch:normal;font-size:5.64444447px;font-family:sans-serif;-inkscape-font-specification:'sans-serif, Normal';font-variant-ligatures:normal;font-variant-caps:normal;font-variant-numeric:normal;font-feature-settings:normal;text-align:start;writing-mode:lr-tb;text-anchor:start;fill:#665555;fill-opacity:1;stroke-width:0.26458332"
             d="m 73.48969,103.93605 q -0.08544,-0.0496 -0.187414,-0.0717 -0.09922,-0.0248 -0.220486,-0.0248 -0.429948,0 -0.661458,0.28112 -0.228754,0.27836 -0.228754,0.80202 v 1.62608 h -0.509874 v -3.0868 h 0.509874 v 0.47955 q 0.159852,-0.28112 0.416167,-0.41616 0.256315,-0.13781 0.622873,-0.13781 0.05237,0 0.115756,0.008 0.06339,0.006 0.14056,0.0193 z" />
          <path
             inkscape:connector-curvature="0"
             id="path953"
             style="font-style:normal;font-variant:normal;font-weight:normal;font-stretch:normal;font-size:5.64444447px;font-family:sans-serif;-inkscape-font-specification:'sans-serif, Normal';font-variant-ligatures:normal;font-variant-caps:normal;font-variant-numeric:normal;font-feature-settings:normal;text-align:start;writing-mode:lr-tb;text-anchor:start;fill:#665555;fill-opacity:1;stroke-width:0.26458332"
             d="m 75.101995,103.81754 q -0.4079,0 -0.644922,0.31971 -0.237023,0.31694 -0.237023,0.87092 0,0.55397 0.234267,0.87367 0.237022,0.31695 0.647678,0.31695 0.405143,0 0.642165,-0.3197 0.237023,-0.31971 0.237023,-0.87092 0,-0.54846 -0.237023,-0.86817 -0.237022,-0.32246 -0.642165,-0.32246 z m 0,-0.42995 q 0.661458,0 1.03904,0.42995 0.377583,0.42995 0.377583,1.19063 0,0.75792 -0.377583,1.19062 -0.377582,0.42995 -1.03904,0.42995 -0.664215,0 -1.041797,-0.42995 -0.374827,-0.4327 -0.374827,-1.19062 0,-0.76068 0.374827,-1.19063 0.377582,-0.42995 1.041797,-0.42995 z" />
          <path
             inkscape:connector-curvature="0"
             id="path955"
             style="font-style:normal;font-variant:normal;font-weight:normal;font-stretch:normal;font-size:5.64444447px;font-family:sans-serif;-inkscape-font-specification:'sans-serif, Normal';font-variant-ligatures:normal;font-variant-caps:normal;font-variant-numeric:normal;font-feature-settings:normal;text-align:start;writing-mode:lr-tb;text-anchor:start;fill:#665555;fill-opacity:1;stroke-width:0.26458332"
             d="m 77.356465,103.46201 h 0.507118 v 3.14192 q 0,0.5898 -0.225998,0.85439 -0.223243,0.26458 -0.722092,0.26458 h -0.192926 v -0.42995 h 0.135048 q 0.289388,0 0.394119,-0.13504 0.104731,-0.1323 0.104731,-0.55398 z m 0,-1.20165 h 0.507118 v 0.64216 h -0.507118 z" />
          <path
             inkscape:connector-curvature="0"
             id="path957"
             style="font-style:normal;font-variant:normal;font-weight:normal;font-stretch:normal;font-size:5.64444447px;font-family:sans-serif;-inkscape-font-specification:'sans-serif, Normal';font-variant-ligatures:normal;font-variant-caps:normal;font-variant-numeric:normal;font-feature-settings:normal;text-align:start;writing-mode:lr-tb;text-anchor:start;fill:#665555;fill-opacity:1;stroke-width:0.26458332"
             d="m 81.562238,104.87863 v 0.24805 h -2.331641 q 0.03307,0.52365 0.314193,0.79926 0.283876,0.27285 0.788238,0.27285 0.292144,0 0.564995,-0.0717 0.275608,-0.0716 0.545703,-0.21497 v 0.47956 q -0.272851,0.11575 -0.559483,0.17639 -0.286632,0.0606 -0.581532,0.0606 -0.738629,0 -1.171333,-0.42995 -0.429948,-0.42995 -0.429948,-1.16306 0,-0.75792 0.4079,-1.20165 0.410655,-0.44649 1.105186,-0.44649 0.622874,0 0.98392,0.40239 0.363802,0.39963 0.363802,1.08865 z M 81.05512,104.7298 q -0.0055,-0.41617 -0.234267,-0.66421 -0.225998,-0.24805 -0.600825,-0.24805 -0.424435,0 -0.68075,0.23978 -0.25356,0.23978 -0.292145,0.67524 z" />
          <path
             inkscape:connector-curvature="0"
             id="path959"
             style="font-style:normal;font-variant:normal;font-weight:normal;font-stretch:normal;font-size:5.64444447px;font-family:sans-serif;-inkscape-font-specification:'sans-serif, Normal';font-variant-ligatures:normal;font-variant-caps:normal;font-variant-numeric:normal;font-feature-settings:normal;text-align:start;writing-mode:lr-tb;text-anchor:start;fill:#665555;fill-opacity:1;stroke-width:0.26458332"
             d="m 84.61597,103.58052 v 0.47404 q -0.214974,-0.11851 -0.432704,-0.17639 -0.214974,-0.0606 -0.43546,-0.0606 -0.493338,0 -0.766189,0.31419 -0.272852,0.31144 -0.272852,0.87644 0,0.56499 0.272852,0.87918 0.272851,0.31144 0.766189,0.31144 0.220486,0 0.43546,-0.0579 0.21773,-0.0606 0.432704,-0.17914 v 0.46853 q -0.212218,0.0992 -0.440972,0.14883 -0.225998,0.0496 -0.482313,0.0496 -0.697288,0 -1.107943,-0.43822 -0.410655,-0.43821 -0.410655,-1.18235 0,-0.75517 0.413411,-1.18787 0.416168,-0.43271 1.13826,-0.43271 0.234266,0 0.457508,0.0496 0.223242,0.0469 0.432704,0.14332 z" />
          <path
             inkscape:connector-curvature="0"
             id="path961"
             style="font-style:normal;font-variant:normal;font-weight:normal;font-stretch:normal;font-size:5.64444447px;font-family:sans-serif;-inkscape-font-specification:'sans-serif, Normal';font-variant-ligatures:normal;font-variant-caps:normal;font-variant-numeric:normal;font-feature-settings:normal;text-align:start;writing-mode:lr-tb;text-anchor:start;fill:#665555;fill-opacity:1;stroke-width:0.26458332"
             d="m 86.005033,102.58558 v 0.87643 h 1.044553 v 0.39412 h -1.044553 v 1.67569 q 0,0.37758 0.101975,0.48507 0.104731,0.10749 0.421679,0.10749 h 0.520899 v 0.42443 h -0.520899 q -0.587044,0 -0.810286,-0.21773 -0.223242,-0.22048 -0.223242,-0.79926 v -1.67569 h -0.372071 v -0.39412 h 0.372071 v -0.87643 z" />
        </g>
        <g
           aria-label="lang"
           transform="matrix(0.46634676,0,0,0.46634676,-106.08426,3.6651564)"
           style="font-style:normal;font-weight:normal;font-size:40px;line-height:1.25;font-family:sans-serif;letter-spacing:0px;word-spacing:0px;fill:#665555;fill-opacity:1;stroke:none"
           id="flowRoot1383">
          <path
             d="m 508.52734,578.47266 h 3.59375 v 30.39062 h -3.59375 z"
             id="path1391"
             inkscape:connector-curvature="0"
             style="fill:#665555;fill-opacity:1" />
          <path
             d="m 529.5625,597.86719 q -4.35547,0 -6.03516,0.99609 -1.67968,0.99609 -1.67968,3.39844 0,1.91406 1.25,3.04687 1.26953,1.11328 3.4375,1.11328 2.98828,0 4.78515,-2.10937 1.81641,-2.12891 1.81641,-5.64453 v -0.80078 z m 7.16797,-1.48438 v 12.48047 h -3.59375 v -3.32031 q -1.23047,1.99219 -3.06641,2.94922 -1.83594,0.9375 -4.49219,0.9375 -3.35937,0 -5.35156,-1.875 -1.97265,-1.89453 -1.97265,-5.0586 0,-3.6914 2.46093,-5.5664 2.48047,-1.875 7.38282,-1.875 h 5.03906 v -0.35157 q 0,-2.48046 -1.64063,-3.82812 -1.62109,-1.36719 -4.57031,-1.36719 -1.875,0 -3.65234,0.44922 -1.77735,0.44922 -3.41797,1.34766 v -3.32032 q 1.97265,-0.76171 3.82812,-1.13281 1.85547,-0.39062 3.61328,-0.39062 4.7461,0 7.08985,2.46093 2.34375,2.46094 2.34375,7.46094 z"
             id="path1393"
             inkscape:connector-curvature="0"
             style="fill:#665555;fill-opacity:1" />
          <path
             d="m 562.33594,595.66016 v 13.20312 h -3.59375 v -13.08594 q 0,-3.10547 -1.21094,-4.64843 -1.21094,-1.54297 -3.63281,-1.54297 -2.91016,0 -4.58985,1.85547 -1.67968,1.85546 -1.67968,5.05859 v 12.36328 h -3.61329 v -21.875 h 3.61329 v 3.39844 q 1.28906,-1.97266 3.02734,-2.94922 1.75781,-0.97656 4.04297,-0.97656 3.76953,0 5.70312,2.34375 1.9336,2.32422 1.9336,6.85547 z"
             id="path1395"
             inkscape:connector-curvature="0"
             style="fill:#665555;fill-opacity:1" />
          <path
             d="m 583.9375,597.67187 q 0,-3.90625 -1.62109,-6.05468 -1.60157,-2.14844 -4.51172,-2.14844 -2.89063,0 -4.51172,2.14844 -1.60156,2.14843 -1.60156,6.05468 0,3.88672 1.60156,6.03516 1.62109,2.14844 4.51172,2.14844 2.91015,0 4.51172,-2.14844 1.62109,-2.14844 1.62109,-6.03516 z m 3.59375,8.47657 q 0,5.58593 -2.48047,8.30078 -2.48047,2.73437 -7.59766,2.73437 -1.89453,0 -3.57421,-0.29297 -1.67969,-0.27343 -3.26172,-0.85937 v -3.49609 q 1.58203,0.85937 3.125,1.26953 1.54297,0.41015 3.14453,0.41015 3.53515,0 5.29297,-1.85547 1.75781,-1.83593 1.75781,-5.5664 v -1.77735 q -1.11328,1.9336 -2.85156,2.89063 -1.73828,0.95703 -4.16016,0.95703 -4.02344,0 -6.48437,-3.06641 -2.46094,-3.0664 -2.46094,-8.125 0,-5.07812 2.46094,-8.14453 2.46093,-3.0664 6.48437,-3.0664 2.42188,0 4.16016,0.95703 1.73828,0.95703 2.85156,2.89062 v -3.32031 h 3.59375 z"
             id="path1397"
             inkscape:connector-curvature="0"
             style="fill:#665555;fill-opacity:1" />
        </g>
      </g>
    </g>
  </g>
</svg>
